<svg width="114" height="102" viewBox="0 0 114 102" fill="none" xmlns="http://www.w3.org/2000/svg">
<path d="M99.64 53.6801V27.3101V1.37012H0.939941V92.7201H69.02" stroke="#aaacc5" stroke-width="1.5" stroke-miterlimit="10"/>
<path d="M12.77 23.6099H27.23" stroke="#aaacc5" stroke-width="1.5" stroke-miterlimit="10"/>
<path d="M43.0601 23.6099H57.53" stroke="#aaacc5" stroke-width="1.5" stroke-miterlimit="10"/>
<path d="M73.3599 23.6099H87.8198" stroke="#aaacc5" stroke-width="1.5" stroke-miterlimit="10"/>
<path d="M12.77 41.0701H27.23" stroke="#aaacc5" stroke-width="1.5" stroke-miterlimit="10"/>
<path d="M43.0601 41.0701H57.53" stroke="#aaacc5" stroke-width="1.5" stroke-miterlimit="10"/>
<path d="M73.3599 41.0701H87.8198" stroke="#aaacc5" stroke-width="1.5" stroke-miterlimit="10"/>
<path d="M12.77 58.53H27.23" stroke="#aaacc5" stroke-width="1.5" stroke-miterlimit="10"/>
<path d="M43.0601 58.53H57.53" stroke="#aaacc5" stroke-width="1.5" stroke-miterlimit="10"/>
<path d="M12.77 75.99H27.23" stroke="#aaacc5" stroke-width="1.5" stroke-miterlimit="10"/>
<path d="M43.0601 75.99H57.53" stroke="#aaacc5" stroke-width="1.5" stroke-miterlimit="10"/>
<path d="M112.31 75.5199C112.312 78.8145 111.663 82.077 110.4 85.1199C109.138 88.1762 107.285 90.9533 104.948 93.2922C102.611 95.6311 99.8351 97.4858 96.7798 98.7499C92.1893 100.65 87.1384 101.145 82.2664 100.173C77.3943 99.2008 72.9201 96.8055 69.4098 93.2899C69.1798 93.0599 68.9498 92.8299 68.7398 92.5899C64.3261 87.8223 61.9305 81.5307 62.0554 75.0349C62.1803 68.5392 64.8161 62.3443 69.4098 57.7499C71.7391 55.4107 74.5086 53.5559 77.5586 52.2926C80.6086 51.0294 83.8786 50.3827 87.1798 50.39C90.4713 50.3865 93.7308 51.0357 96.7698 52.2999C97.6576 52.6639 98.5225 53.0813 99.3598 53.5499C101.411 54.6812 103.292 56.095 104.95 57.7499C107.278 60.0915 109.129 62.8628 110.4 65.9099C111.664 68.9559 112.313 72.222 112.31 75.5199V75.5199Z" stroke="#aaacc5" stroke-width="1.5" stroke-miterlimit="10"/>
<path d="M81 63.4099H88.6C89.4509 63.4099 90.2936 63.5775 91.0798 63.9032C91.866 64.2288 92.5803 64.7061 93.182 65.3079C93.7837 65.9096 94.2611 66.6239 94.5868 67.4101C94.9124 68.1963 95.08 69.039 95.08 69.8899V69.8899C95.08 70.7409 94.9124 71.5835 94.5868 72.3697C94.2611 73.1559 93.7837 73.8702 93.182 74.472C92.5803 75.0737 91.866 75.551 91.0798 75.8766C90.2936 76.2023 89.4509 76.3699 88.6 76.3699H85.79C85.2061 76.3686 84.6276 76.4825 84.0878 76.705C83.5479 76.9276 83.0573 77.2544 82.6439 77.6668C82.2306 78.0792 81.9027 78.5692 81.679 79.1085C81.4552 79.6478 81.34 80.226 81.34 80.8099V87.6399H95.45" stroke="#aaacc5" stroke-width="1.38" stroke-miterlimit="10"/>
</svg>
