<svg width="115" height="102" viewBox="0 0 115 102" fill="none" xmlns="http://www.w3.org/2000/svg">
<path d="M100.38 53.6801V27.3101V1.37012H1.68018V92.7201H69.7601" stroke="#aaacc5" stroke-width="1.5" stroke-miterlimit="10"/>
<path d="M13.5098 23.6099H27.9697" stroke="#aaacc5" stroke-width="1.5" stroke-miterlimit="10"/>
<path d="M43.7998 23.6099H58.2598" stroke="#aaacc5" stroke-width="1.5" stroke-miterlimit="10"/>
<path d="M74.1001 23.6099H88.5602" stroke="#aaacc5" stroke-width="1.5" stroke-miterlimit="10"/>
<path d="M13.5098 41.0701H27.9697" stroke="#aaacc5" stroke-width="1.5" stroke-miterlimit="10"/>
<path d="M43.7998 41.0701H58.2598" stroke="#aaacc5" stroke-width="1.5" stroke-miterlimit="10"/>
<path d="M74.1001 41.0701H88.5602" stroke="#aaacc5" stroke-width="1.5" stroke-miterlimit="10"/>
<path d="M13.5098 58.53H27.9697" stroke="#aaacc5" stroke-width="1.5" stroke-miterlimit="10"/>
<path d="M43.7998 58.53H58.2598" stroke="#aaacc5" stroke-width="1.5" stroke-miterlimit="10"/>
<path d="M13.5098 75.99H27.9697" stroke="#aaacc5" stroke-width="1.5" stroke-miterlimit="10"/>
<path d="M43.7998 75.99H58.2598" stroke="#aaacc5" stroke-width="1.5" stroke-miterlimit="10"/>
<path d="M113.33 75.6501C113.325 82.314 110.678 88.704 105.97 93.4201C103.63 95.7519 100.859 97.6063 97.8103 98.8801C93.2183 100.781 88.1657 101.276 83.2919 100.304C78.4181 99.3323 73.9421 96.9366 70.4303 93.4201C70.2003 93.1901 69.9703 92.9601 69.7603 92.7201C65.3466 87.9525 62.951 81.6608 63.0759 75.1651C63.2009 68.6694 65.8367 62.4745 70.4303 57.8801C72.7596 55.5408 75.5292 53.686 78.5791 52.4228C81.6291 51.1596 84.899 50.5129 88.2002 50.5201C91.4948 50.518 94.7574 51.1671 97.8003 52.4301C98.6848 52.7941 99.5464 53.2115 100.38 53.6801C102.433 54.8084 104.315 56.2225 105.97 57.8801C108.301 60.219 110.153 62.991 111.42 66.0401C112.685 69.0861 113.334 72.3521 113.33 75.6501Z" stroke="#aaacc5" stroke-width="1.5" stroke-miterlimit="10"/>
<path d="M82.3101 68.5099L89.8 62.9099V88.3399" stroke="#aaacc5" stroke-width="1.5" stroke-miterlimit="10"/>
</svg>
